<?xml version="1.0" encoding="UTF-8"?>
<svg width="621px" height="302px" viewBox="0 0 621 302" version="1.1" xmlns="http://www.w3.org/2000/svg" xmlns:xlink="http://www.w3.org/1999/xlink">
    <!-- Generator: Sketch 50.2 (55047) - http://www.bohemiancoding.com/sketch -->
    <title>Fill 1</title>
    <desc>Created with Sketch.</desc>
    <defs></defs>
    <g id="Web-Splash" stroke="none" stroke-width="1" fill="none" fill-rule="evenodd">
        <g id="desktop-splash-v4-HD" transform="translate(-819.000000, -518.000000)" fill="#02045C">
            <g id="bg" transform="translate(-2065.000000, 0.000000)">
                <path d="M3902.68052,714.089496 C3773.01819,597.504117 3603.45445,526.975702 3429.36567,518.669889 C3258.59092,510.523072 3097.71527,577.020577 2979.58106,699.768818 C2867.45191,816.279199 2800.04622,967.554799 2727.78848,1109.9396 C2708.94729,1147.06876 2689.68509,1183.99993 2669.07788,1220.18512 C2660.07478,1235.99576 2650.81869,1251.66441 2641.22859,1267.12707 C2636.01854,1275.52788 2630.65248,1283.82169 2625.29943,1292.1315 C2618.19936,1302.59827 2614.48732,1308.00515 2610.68728,1313.35403 C2587.54604,1345.91929 2562.36878,1377.04059 2534.5475,1405.73395 C2527.43842,1413.06478 2520.17235,1420.24462 2512.75727,1427.26647 C2509.05224,1430.77539 2505.3102,1434.24531 2501.53116,1437.67523 C2501.28516,1437.89823 2495.17009,1443.30111 2494.08108,1444.31008 C2479.39893,1456.8818 2464.14078,1468.81153 2448.49662,1480.15628 C2315.65725,1576.49911 2159.65766,1625.48201 1993.87896,1623.44006 C1972.18573,1623.17306 1962.77364,1622.66107 1945.70046,1621.08311 C1923.69024,1619.05015 1901.77101,1616.05422 1880.02779,1612.07331 C1838.34836,1604.44148 1798.80896,1593.29473 1766.01862,1580.93301 C1673.23867,1545.9538 1587.30879,1495.72593 1496.39586,1456.50881 C1408.85896,1418.74766 1318.55803,1393.77822 1222.77905,1393.26923 C1141.68222,1392.83724 1059.29338,1409.67286 984.292608,1440.34917 C827.618002,1504.42973 631.067889,1792.06567 629.968801,1793.58061 C400.772419,2109.49499 209.948233,2016.61404 100.61168,2236.23091 C-8.72487386,2455.84777 -56.2602215,2516.99226 100.61168,2587.52214 C336.5411,2693.59642 918.905938,2761.51048 1092.93772,2818.77019 C1183.94565,2848.71452 1279.89764,2858.04031 1375.27962,2850.32448 C1478.74768,2841.95567 1579.99771,2816.07525 1680.45474,2791.17281 C1778.43975,2766.88335 1875.34774,2743.73988 1976.64078,2739.16598 C2068.14872,2735.03307 2151.59757,2744.24086 2243.07651,2762.05846 C2601.60119,2831.89189 2946.65072,3024.40557 3321.05656,2984.64846 C3688.16532,2945.66734 3989.39941,2673.47645 4132.34287,2342.75589 C4213.58471,2154.79611 4249.37407,1951.07769 4254.35713,1747.12528 C4258.99117,1557.45854 4238.89097,1363.83489 4183.6914,1181.88198 C4130.63386,1006.99091 4039.85993,837.431724 3902.68052,714.089496 Z" id="Fill-1"></path>
            </g>
        </g>
    </g>
</svg>