<?xml version="1.0" encoding="UTF-8"?>
<svg width="414px" height="736px" viewBox="0 0 414 736" version="1.1" xmlns="http://www.w3.org/2000/svg" xmlns:xlink="http://www.w3.org/1999/xlink">
    <!-- Generator: Sketch 50.2 (55047) - http://www.bohemiancoding.com/sketch -->
    <title>iPhone 8 Plus</title>
    <desc>Created with Sketch.</desc>
    <defs>
        <rect id="path-1" x="0" y="0" width="1324" height="754"></rect>
    </defs>
    <g id="iPhone-8-Plus" stroke="none" stroke-width="1" fill="none" fill-rule="evenodd">
        <g id="background-bottom-2" transform="translate(-791.000000, 215.000000)">
            <g id="Mask" fill="#FCF9F6" fill-rule="nonzero">
                <rect id="path-1" x="0" y="0" width="1324" height="754"></rect>
            </g>
            <g id="Clipped">
                <mask id="mask-2" fill="white">
                    <use xlink:href="#path-1"></use>
                </mask>
                <g id="path-1"></g>
                <path d="M2270.72918,-250.944537 C2151.51009,-358.146214 1995.60331,-422.997952 1835.53595,-430.635248 C1678.5157,-438.126346 1530.59726,-376.981079 1421.97778,-264.112575 C1318.87972,-156.979858 1256.903,-17.8800996 1190.46503,113.04446 C1173.14134,147.185181 1155.43055,181.143842 1136.48308,214.416562 C1128.20511,228.954642 1119.69453,243.362155 1110.87683,257.580252 C1106.0864,265.304901 1101.15254,272.931164 1096.23062,280.572138 C1089.7024,290.196456 1086.28934,295.168146 1082.79537,300.086507 C1061.51797,330.030668 1038.36853,358.647084 1012.78802,385.030974 C1006.25152,391.771766 999.570672,398.373715 992.752817,404.830385 C989.346192,408.05688 985.905548,411.247516 982.430876,414.401372 C982.204683,414.606418 976.582143,419.574431 975.58084,420.502198 C962.081216,432.062045 948.051984,443.031579 933.667827,453.463211 C811.527586,542.051622 668.092472,587.091995 515.665883,585.214393 C495.719872,584.968889 487.065842,584.49811 471.36777,583.047151 C451.130288,581.177825 430.976477,578.423029 410.984491,574.762533 C372.661999,567.744973 336.307168,557.495402 306.157824,546.128648 C220.850534,513.964834 141.841599,467.779694 58.2509563,431.719075 C-22.2355637,396.997236 -105.263493,374.037532 -193.328265,373.569511 C-267.893413,373.172291 -343.646514,388.65285 -412.606587,416.860092 C-556.662342,475.782948 -680.972529,589.577381 -735.440873,737.436215 C-770.747511,833.279415 -779.984484,937.838478 -763.505785,1038.30396 C-767.985431,1151.52279 -743.608504,1265.06804 -691.045298,1368.20005 C-613.970922,1519.4233 -472.726899,1631.68403 -312.711945,1684.33503 C-229.033952,1711.8692 -140.810111,1720.44438 -53.110368,1713.34958 C42.0241912,1705.65436 135.119371,1681.857 227.485413,1658.9589 C317.578531,1636.62445 406.681383,1615.34374 499.8161,1611.13799 C583.953825,1607.33773 660.681562,1615.8044 744.792624,1632.1879 C1074.44109,1696.40059 1391.69972,1873.41927 1735.95024,1836.86212 C2073.49142,1801.01851 2350.46358,1550.73566 2481.89412,1246.63407 C2556.59259,1073.80276 2589.49942,886.481195 2594.08113,698.944461 C2598.34194,524.543583 2579.86064,346.504279 2529.10694,179.196358 C2480.32275,18.3818877 2396.85991,-137.529854 2270.72918,-250.944537 Z" id="Shape" fill="#1F349D" fill-rule="nonzero" mask="url(#mask-2)"></path>
            </g>
        </g>
    </g>
</svg>