<?xml version="1.0" encoding="UTF-8"?>
<svg width="1440px" height="820px" viewBox="0 0 1440 820" version="1.1" xmlns="http://www.w3.org/2000/svg" xmlns:xlink="http://www.w3.org/1999/xlink">
    <!-- Generator: Sketch 50.2 (55047) - http://www.bohemiancoding.com/sketch -->
    <title>Fill 1</title>
    <desc>Created with Sketch.</desc>
    <defs>
        <rect id="path-1" x="0" y="0" width="1440" height="820"></rect>
    </defs>
    <g id="Web-Splash" stroke="none" stroke-width="1" fill="none" fill-rule="evenodd">
        <g id="desktop-splash-v4-HD">
            <g id="bg" transform="translate(-2065.000000, 0.000000)">
                <g id="Fill-1" transform="translate(2065.000000, 0.000000)">
                    <mask id="mask-2" fill="white">
                        <use xlink:href="#path-1"></use>
                    </mask>
                    <use id="Mask" fill="#FCF9F6" xlink:href="#path-1"></use>
                    <path d="M2469.67524,-272.910504 C2340.01097,-389.495883 2170.44469,-460.024298 1996.3533,-468.330111 C1825.57599,-476.476928 1664.69793,-409.979423 1546.56194,-287.231182 C1434.43112,-170.720801 1367.02441,-19.4452012 1294.76559,122.939598 C1275.92412,160.068764 1256.66163,196.999934 1236.05411,233.18512 C1227.05088,248.995765 1217.79465,264.664413 1208.20441,280.127065 C1202.99427,288.527876 1197.62814,296.82169 1192.275,305.131503 C1185.17482,315.598268 1181.46273,321.005146 1177.66264,326.354026 C1154.52105,358.919294 1129.34342,390.040595 1101.52171,418.73395 C1094.41253,426.064785 1087.14635,433.244624 1079.73116,440.266466 C1076.02607,443.775387 1072.28398,447.245309 1068.50488,450.675232 C1068.25887,450.898227 1062.14372,456.301105 1061.05469,457.310083 C1046.37232,469.8818 1031.11394,481.811532 1015.46954,493.156277 C882.62819,589.499111 726.626253,638.48201 560.845069,636.440056 C539.151522,636.173062 529.739284,635.661074 512.665853,634.083109 C490.655298,632.050155 468.735745,629.054222 446.992196,625.073312 C405.312144,617.441483 365.772146,606.294734 332.981319,593.933012 C240.199977,558.953798 154.268809,508.725927 63.3545144,469.508808 C-24.1836947,431.747657 -114.485974,406.778218 -210.266391,406.26923 C-291.364437,405.83724 -373.754517,422.672861 -448.756409,453.349172 C-605.433363,517.429731 -740.634775,641.18495 -799.87527,801.986335 C-838.275239,906.218992 -848.321493,1019.93044 -830.399041,1129.18998 C-835.271164,1252.31921 -808.758494,1375.80344 -751.590052,1487.96292 C-667.762936,1652.42322 -514.144059,1774.51048 -340.109668,1831.77019 C-249.100371,1861.71452 -153.146949,1871.04031 -57.7635422,1863.32448 C45.706069,1854.95567 146.957624,1829.07525 247.416159,1804.17281 C345.402632,1779.88335 442.312078,1756.73988 543.606634,1752.16598 C635.115943,1748.03307 718.566049,1757.24086 810.046358,1775.05846 C1168.57641,1844.89189 1513.63111,2037.40557 1888.04256,1997.64846 C2255.15683,1958.66734 2556.39543,1686.47645 2699.34104,1355.75589 C2780.58409,1167.79611 2816.37399,964.077692 2821.35712,760.125276 C2825.99123,570.458539 2805.89073,376.834892 2750.69033,194.881981 C2697.63199,19.9909124 2606.8567,-149.568276 2469.67524,-272.910504 Z" fill="#1F349D" mask="url(#mask-2)"></path>
                </g>
            </g>
        </g>
    </g>
</svg>