<?xml version="1.0" encoding="UTF-8"?>
<svg width="180px" height="59px" viewBox="0 0 180 59" version="1.1" xmlns="http://www.w3.org/2000/svg" xmlns:xlink="http://www.w3.org/1999/xlink">
    <!-- Generator: Sketch 50.2 (55047) - http://www.bohemiancoding.com/sketch -->
    <title>logo</title>
    <desc>Created with Sketch.</desc>
    <defs></defs>
    <g id="Web-Splash" stroke="none" stroke-width="1" fill="none" fill-rule="evenodd">
        <g id="desktop-splash-v4-HD" transform="translate(-130.000000, -96.000000)" fill="#FDCA26">
            <path d="M303.280899,142.091232 C307.022268,142.091232 310,144.884297 310,148.582917 C310,152.282436 307.022268,155 303.280899,155 C299.539984,155 296.638162,152.282436 296.638162,148.582917 C296.638162,144.884297 299.539984,142.091232 303.280899,142.091232 M293.970248,144.133293 L273.999764,144.133293 L296.475252,121.270158 L297.611618,114.852176 L265.236569,114.852176 L263.613839,123.676733 L280.003864,123.676733 L257.934285,146.539867 L256.798374,152.957849 L293.877521,152.957849 C293.27252,151.672096 292.935701,150.220511 292.935701,148.654328 C292.935701,147.008599 293.306611,145.479267 293.970248,144.133293 M205.096023,152.95776 L203.926021,150.37277 C200.923744,152.458918 197.079193,153.759951 193.103277,153.759951 C187.585996,153.759951 182.88008,151.112944 179.958712,146.941098 C178.011436,144.133203 177.037799,140.683554 177.037799,136.993922 C177.037799,134.82778 177.280981,132.581195 177.68689,130.175069 L180.445531,114.852086 L191.074638,114.852086 L187.991452,131.939441 C187.666906,133.784707 187.504633,134.988219 187.504633,136.512158 C187.504633,140.683554 190.344637,144.133203 194.969644,144.133203 L195.081462,144.133203 C200.247834,144.116575 204.646931,140.406719 205.552842,135.377855 L209.25012,114.852086 L219.879227,114.852086 L213.063762,152.95776 L205.096023,152.95776 Z M257.284738,121.270158 L234.80925,144.133293 L254.038824,144.133293 L252.497458,152.957849 L217.607405,152.957849 L218.743316,146.540317 L240.81335,123.676733 L224.423325,123.676733 L226.046055,114.852176 L258.420649,114.852176 L257.284738,121.270158 Z M158.733225,142.692494 C158.209588,142.986406 157.652315,143.250657 157.063677,143.474012 C155.905039,143.913083 154.624583,144.18857 153.232762,144.189918 C150.738213,144.187671 148.435937,143.188639 146.790025,141.457972 C145.245932,139.834714 144.278658,137.567905 144.278658,134.871013 C144.278658,131.084759 146.298661,127.090878 149.707303,125.094163 C150.23094,124.800251 150.788213,124.53555 151.376851,124.312644 C152.535489,123.873573 153.815945,123.598087 155.207765,123.596289 C157.702315,123.598986 160.004136,124.598467 161.650503,126.328684 C163.194596,127.951942 164.161415,130.218752 164.161415,132.915643 C164.161415,136.701448 162.141867,140.695778 158.733225,142.692494 M156.77595,114.049985 C155.963676,114.049985 155.188675,114.090431 154.446401,114.165482 C152.410034,114.336706 150.506849,114.801843 148.751847,115.466965 C148.230028,115.664704 147.7223,115.881318 147.225935,116.110965 L150.852759,96 L140.223197,96 L130,152.957849 L139.018195,152.957849 L140.745016,149.703244 C144.801841,152.671128 148.661846,153.760041 152.962308,153.760041 C157.019132,153.760041 160.589137,152.556529 163.591415,150.871702 C170.163697,147.021632 174.058703,139.320143 174.058703,132.019526 C174.058703,121.270158 166.106873,114.049985 156.77595,114.049985" id="logo"></path>
        </g>
    </g>
</svg>